<svg width="25" height="24" viewBox="0 0 25 24" fill="none" xmlns="http://www.w3.org/2000/svg">
<g clip-path="url(#clip0_16_47)">
<path fill-rule="evenodd" clip-rule="evenodd" d="M12.5 0C5.88125 0 0.5 5.38125 0.5 12C0.5 18.6187 5.88125 24 12.5 24C19.1187 24 24.5 18.6187 24.5 12C24.5 5.38125 19.1187 0 12.5 0Z" fill="#6C0CAD"/>
<path fill-rule="evenodd" clip-rule="evenodd" d="M18.3047 7.95586C18.5953 8.24648 18.5953 8.72461 18.3047 9.01523L11.2734 16.0465C11.1281 16.1918 10.9359 16.2668 10.7438 16.2668C10.5516 16.2668 10.3594 16.1918 10.2141 16.0465L6.69844 12.5309C6.40781 12.2402 6.40781 11.7621 6.69844 11.4715C6.98906 11.1809 7.46719 11.1809 7.75781 11.4715L10.7438 14.4574L17.2453 7.95586C17.5359 7.66055 18.0141 7.66055 18.3047 7.95586Z" fill="white"/>
</g>
<defs>
<clipPath id="clip0_16_47">
<rect width="24" height="24" fill="white" transform="translate(0.5)"/>
</clipPath>
</defs>
</svg>
